<mxfile host="app.diagrams.net" modified="2022-11-29T02:48:27.163Z" agent="5.0 (Windows NT 10.0; Win64; x64) AppleWebKit/537.36 (KHTML, like Gecko) Chrome/107.0.0.0 Safari/537.36" etag="gn4bwN9K1OETHlRDQtPD" version="20.2.3" type="github">
  <diagram id="gmYLegr19tV1AKaho7y2" name="Page-1">
    <mxGraphModel dx="2424" dy="842" grid="1" gridSize="10" guides="1" tooltips="1" connect="1" arrows="1" fold="1" page="1" pageScale="1" pageWidth="827" pageHeight="1169" math="0" shadow="0">
      <root>
        <mxCell id="0" />
        <mxCell id="1" parent="0" />
        <mxCell id="PyYpU2-Xiwqj1ma54kJ--3" value="" style="edgeStyle=orthogonalEdgeStyle;rounded=0;orthogonalLoop=1;jettySize=auto;html=1;fontSize=14;" edge="1" parent="1" source="PyYpU2-Xiwqj1ma54kJ--1" target="PyYpU2-Xiwqj1ma54kJ--2">
          <mxGeometry relative="1" as="geometry" />
        </mxCell>
        <mxCell id="PyYpU2-Xiwqj1ma54kJ--1" value="&lt;b&gt;&lt;font style=&quot;font-size: 14px;&quot;&gt;START&lt;/font&gt;&lt;/b&gt;" style="ellipse;whiteSpace=wrap;html=1;" vertex="1" parent="1">
          <mxGeometry x="354" y="30" width="120" height="80" as="geometry" />
        </mxCell>
        <mxCell id="PyYpU2-Xiwqj1ma54kJ--10" style="edgeStyle=orthogonalEdgeStyle;rounded=0;orthogonalLoop=1;jettySize=auto;html=1;exitX=0.5;exitY=1;exitDx=0;exitDy=0;fontSize=14;" edge="1" parent="1" source="PyYpU2-Xiwqj1ma54kJ--2" target="PyYpU2-Xiwqj1ma54kJ--4">
          <mxGeometry relative="1" as="geometry" />
        </mxCell>
        <mxCell id="PyYpU2-Xiwqj1ma54kJ--11" style="edgeStyle=orthogonalEdgeStyle;rounded=0;orthogonalLoop=1;jettySize=auto;html=1;exitX=0.5;exitY=1;exitDx=0;exitDy=0;fontSize=14;" edge="1" parent="1" source="PyYpU2-Xiwqj1ma54kJ--2">
          <mxGeometry relative="1" as="geometry">
            <mxPoint x="180.0526315789475" y="300" as="targetPoint" />
          </mxGeometry>
        </mxCell>
        <mxCell id="PyYpU2-Xiwqj1ma54kJ--2" value="&lt;font style=&quot;font-size: 14px;&quot;&gt;if&lt;br&gt;LDR = 1&lt;/font&gt;" style="rhombus;whiteSpace=wrap;html=1;" vertex="1" parent="1">
          <mxGeometry x="344" y="150" width="140" height="80" as="geometry" />
        </mxCell>
        <mxCell id="PyYpU2-Xiwqj1ma54kJ--14" style="edgeStyle=orthogonalEdgeStyle;rounded=0;orthogonalLoop=1;jettySize=auto;html=1;exitX=1;exitY=0.5;exitDx=0;exitDy=0;entryX=1;entryY=0.5;entryDx=0;entryDy=0;fontSize=14;" edge="1" parent="1" source="PyYpU2-Xiwqj1ma54kJ--4" target="PyYpU2-Xiwqj1ma54kJ--2">
          <mxGeometry relative="1" as="geometry" />
        </mxCell>
        <mxCell id="PyYpU2-Xiwqj1ma54kJ--4" value="outside&lt;br&gt;led&amp;nbsp; &amp;nbsp; =&amp;nbsp; 0" style="rounded=1;whiteSpace=wrap;html=1;fontSize=14;" vertex="1" parent="1">
          <mxGeometry x="590" y="300" width="120" height="60" as="geometry" />
        </mxCell>
        <mxCell id="PyYpU2-Xiwqj1ma54kJ--12" value="yes" style="text;html=1;align=center;verticalAlign=middle;resizable=0;points=[];autosize=1;strokeColor=none;fillColor=none;fontSize=14;" vertex="1" parent="1">
          <mxGeometry x="465" y="235" width="50" height="30" as="geometry" />
        </mxCell>
        <mxCell id="PyYpU2-Xiwqj1ma54kJ--13" value="no" style="text;html=1;align=center;verticalAlign=middle;resizable=0;points=[];autosize=1;strokeColor=none;fillColor=none;fontSize=14;" vertex="1" parent="1">
          <mxGeometry x="250" y="235" width="40" height="30" as="geometry" />
        </mxCell>
        <mxCell id="PyYpU2-Xiwqj1ma54kJ--18" style="edgeStyle=orthogonalEdgeStyle;rounded=0;orthogonalLoop=1;jettySize=auto;html=1;exitX=0.5;exitY=1;exitDx=0;exitDy=0;entryX=0.5;entryY=0;entryDx=0;entryDy=0;fontSize=14;" edge="1" parent="1" source="PyYpU2-Xiwqj1ma54kJ--15" target="PyYpU2-Xiwqj1ma54kJ--16">
          <mxGeometry relative="1" as="geometry" />
        </mxCell>
        <mxCell id="PyYpU2-Xiwqj1ma54kJ--19" style="edgeStyle=orthogonalEdgeStyle;rounded=0;orthogonalLoop=1;jettySize=auto;html=1;exitX=0.5;exitY=1;exitDx=0;exitDy=0;entryX=0.5;entryY=0;entryDx=0;entryDy=0;fontSize=14;" edge="1" parent="1" source="PyYpU2-Xiwqj1ma54kJ--15" target="PyYpU2-Xiwqj1ma54kJ--17">
          <mxGeometry relative="1" as="geometry" />
        </mxCell>
        <mxCell id="PyYpU2-Xiwqj1ma54kJ--15" value="Outside IR = 1" style="rhombus;whiteSpace=wrap;html=1;fontSize=14;" vertex="1" parent="1">
          <mxGeometry x="130" y="300" width="100" height="100" as="geometry" />
        </mxCell>
        <mxCell id="PyYpU2-Xiwqj1ma54kJ--24" style="edgeStyle=orthogonalEdgeStyle;rounded=0;orthogonalLoop=1;jettySize=auto;html=1;exitX=0.5;exitY=1;exitDx=0;exitDy=0;entryX=0.5;entryY=0;entryDx=0;entryDy=0;fontSize=14;" edge="1" parent="1" source="PyYpU2-Xiwqj1ma54kJ--16" target="PyYpU2-Xiwqj1ma54kJ--22">
          <mxGeometry relative="1" as="geometry" />
        </mxCell>
        <mxCell id="PyYpU2-Xiwqj1ma54kJ--16" value="outside led = 1" style="rounded=1;whiteSpace=wrap;html=1;fontSize=14;" vertex="1" parent="1">
          <mxGeometry x="370" y="460" width="120" height="60" as="geometry" />
        </mxCell>
        <mxCell id="PyYpU2-Xiwqj1ma54kJ--33" style="edgeStyle=orthogonalEdgeStyle;rounded=0;orthogonalLoop=1;jettySize=auto;html=1;exitX=0.5;exitY=1;exitDx=0;exitDy=0;entryX=0.5;entryY=0;entryDx=0;entryDy=0;fontSize=14;" edge="1" parent="1" source="PyYpU2-Xiwqj1ma54kJ--17" target="PyYpU2-Xiwqj1ma54kJ--30">
          <mxGeometry relative="1" as="geometry" />
        </mxCell>
        <mxCell id="PyYpU2-Xiwqj1ma54kJ--17" value="outside led = 0" style="rounded=1;whiteSpace=wrap;html=1;fontSize=14;" vertex="1" parent="1">
          <mxGeometry x="-10" y="460" width="120" height="60" as="geometry" />
        </mxCell>
        <mxCell id="PyYpU2-Xiwqj1ma54kJ--20" value="no" style="text;html=1;align=center;verticalAlign=middle;resizable=0;points=[];autosize=1;strokeColor=none;fillColor=none;fontSize=14;" vertex="1" parent="1">
          <mxGeometry x="100" y="405" width="40" height="30" as="geometry" />
        </mxCell>
        <mxCell id="PyYpU2-Xiwqj1ma54kJ--21" value="yes" style="text;html=1;align=center;verticalAlign=middle;resizable=0;points=[];autosize=1;strokeColor=none;fillColor=none;fontSize=14;" vertex="1" parent="1">
          <mxGeometry x="215" y="405" width="50" height="30" as="geometry" />
        </mxCell>
        <mxCell id="PyYpU2-Xiwqj1ma54kJ--25" style="edgeStyle=orthogonalEdgeStyle;rounded=0;orthogonalLoop=1;jettySize=auto;html=1;exitX=0.5;exitY=1;exitDx=0;exitDy=0;entryX=0.5;entryY=0;entryDx=0;entryDy=0;fontSize=14;" edge="1" parent="1" source="PyYpU2-Xiwqj1ma54kJ--22" target="PyYpU2-Xiwqj1ma54kJ--23">
          <mxGeometry relative="1" as="geometry" />
        </mxCell>
        <mxCell id="PyYpU2-Xiwqj1ma54kJ--22" value="r16 = r16+1" style="rounded=1;whiteSpace=wrap;html=1;fontSize=14;" vertex="1" parent="1">
          <mxGeometry x="370" y="570" width="120" height="60" as="geometry" />
        </mxCell>
        <mxCell id="PyYpU2-Xiwqj1ma54kJ--26" style="edgeStyle=orthogonalEdgeStyle;rounded=0;orthogonalLoop=1;jettySize=auto;html=1;exitX=1;exitY=0.5;exitDx=0;exitDy=0;entryX=1;entryY=0.5;entryDx=0;entryDy=0;fontSize=14;" edge="1" parent="1" source="PyYpU2-Xiwqj1ma54kJ--23" target="PyYpU2-Xiwqj1ma54kJ--15">
          <mxGeometry relative="1" as="geometry">
            <Array as="points">
              <mxPoint x="570" y="700" />
              <mxPoint x="570" y="350" />
            </Array>
          </mxGeometry>
        </mxCell>
        <mxCell id="PyYpU2-Xiwqj1ma54kJ--28" style="edgeStyle=orthogonalEdgeStyle;rounded=0;orthogonalLoop=1;jettySize=auto;html=1;exitX=0;exitY=0.5;exitDx=0;exitDy=0;entryX=1;entryY=0.5;entryDx=0;entryDy=0;fontSize=14;" edge="1" parent="1" source="PyYpU2-Xiwqj1ma54kJ--23" target="PyYpU2-Xiwqj1ma54kJ--17">
          <mxGeometry relative="1" as="geometry">
            <Array as="points">
              <mxPoint x="330" y="700" />
              <mxPoint x="330" y="490" />
            </Array>
          </mxGeometry>
        </mxCell>
        <mxCell id="PyYpU2-Xiwqj1ma54kJ--23" value="if&lt;br&gt;outside IR&amp;nbsp;&amp;nbsp;&lt;b&gt;!=&lt;/b&gt; 1" style="rhombus;whiteSpace=wrap;html=1;fontSize=14;" vertex="1" parent="1">
          <mxGeometry x="355" y="642.5" width="160" height="115" as="geometry" />
        </mxCell>
        <mxCell id="PyYpU2-Xiwqj1ma54kJ--27" value="No" style="text;html=1;align=center;verticalAlign=middle;resizable=0;points=[];autosize=1;strokeColor=none;fillColor=none;fontSize=14;" vertex="1" parent="1">
          <mxGeometry x="330" y="670" width="40" height="30" as="geometry" />
        </mxCell>
        <mxCell id="PyYpU2-Xiwqj1ma54kJ--29" value="yes" style="text;html=1;align=center;verticalAlign=middle;resizable=0;points=[];autosize=1;strokeColor=none;fillColor=none;fontSize=14;" vertex="1" parent="1">
          <mxGeometry x="515" y="670" width="50" height="30" as="geometry" />
        </mxCell>
        <mxCell id="PyYpU2-Xiwqj1ma54kJ--34" style="edgeStyle=orthogonalEdgeStyle;rounded=0;orthogonalLoop=1;jettySize=auto;html=1;exitX=0.5;exitY=1;exitDx=0;exitDy=0;fontSize=14;" edge="1" parent="1" source="PyYpU2-Xiwqj1ma54kJ--30" target="PyYpU2-Xiwqj1ma54kJ--31">
          <mxGeometry relative="1" as="geometry" />
        </mxCell>
        <mxCell id="PyYpU2-Xiwqj1ma54kJ--35" style="edgeStyle=orthogonalEdgeStyle;rounded=0;orthogonalLoop=1;jettySize=auto;html=1;exitX=0.5;exitY=1;exitDx=0;exitDy=0;entryX=0.42;entryY=-0.021;entryDx=0;entryDy=0;entryPerimeter=0;fontSize=14;" edge="1" parent="1" source="PyYpU2-Xiwqj1ma54kJ--30" target="PyYpU2-Xiwqj1ma54kJ--32">
          <mxGeometry relative="1" as="geometry" />
        </mxCell>
        <mxCell id="PyYpU2-Xiwqj1ma54kJ--30" value="if&amp;nbsp;&lt;br&gt;Inside IR =1" style="rhombus;whiteSpace=wrap;html=1;fontSize=14;" vertex="1" parent="1">
          <mxGeometry x="-20" y="570" width="140" height="100" as="geometry" />
        </mxCell>
        <mxCell id="PyYpU2-Xiwqj1ma54kJ--39" style="edgeStyle=orthogonalEdgeStyle;rounded=0;orthogonalLoop=1;jettySize=auto;html=1;exitX=0.5;exitY=1;exitDx=0;exitDy=0;fontSize=14;" edge="1" parent="1" source="PyYpU2-Xiwqj1ma54kJ--31" target="PyYpU2-Xiwqj1ma54kJ--38">
          <mxGeometry relative="1" as="geometry" />
        </mxCell>
        <mxCell id="PyYpU2-Xiwqj1ma54kJ--31" value="inside led = 1" style="rounded=1;whiteSpace=wrap;html=1;fontSize=14;" vertex="1" parent="1">
          <mxGeometry x="150" y="800" width="120" height="60" as="geometry" />
        </mxCell>
        <mxCell id="PyYpU2-Xiwqj1ma54kJ--32" value="inside led = 0" style="rounded=1;whiteSpace=wrap;html=1;fontSize=14;" vertex="1" parent="1">
          <mxGeometry x="-170" y="800" width="120" height="60" as="geometry" />
        </mxCell>
        <mxCell id="PyYpU2-Xiwqj1ma54kJ--36" value="no" style="text;html=1;align=center;verticalAlign=middle;resizable=0;points=[];autosize=1;strokeColor=none;fillColor=none;fontSize=14;" vertex="1" parent="1">
          <mxGeometry x="-60" y="705" width="40" height="30" as="geometry" />
        </mxCell>
        <mxCell id="PyYpU2-Xiwqj1ma54kJ--37" value="yes" style="text;html=1;align=center;verticalAlign=middle;resizable=0;points=[];autosize=1;strokeColor=none;fillColor=none;fontSize=14;" vertex="1" parent="1">
          <mxGeometry x="85" y="705" width="50" height="30" as="geometry" />
        </mxCell>
        <mxCell id="PyYpU2-Xiwqj1ma54kJ--42" style="edgeStyle=orthogonalEdgeStyle;rounded=0;orthogonalLoop=1;jettySize=auto;html=1;exitX=0.5;exitY=1;exitDx=0;exitDy=0;entryX=0.5;entryY=0;entryDx=0;entryDy=0;fontSize=14;" edge="1" parent="1" source="PyYpU2-Xiwqj1ma54kJ--38" target="PyYpU2-Xiwqj1ma54kJ--41">
          <mxGeometry relative="1" as="geometry" />
        </mxCell>
        <mxCell id="PyYpU2-Xiwqj1ma54kJ--38" value="r17 = r17+1" style="rounded=1;whiteSpace=wrap;html=1;fontSize=14;" vertex="1" parent="1">
          <mxGeometry x="150" y="920" width="120" height="60" as="geometry" />
        </mxCell>
        <mxCell id="PyYpU2-Xiwqj1ma54kJ--43" style="edgeStyle=orthogonalEdgeStyle;rounded=0;orthogonalLoop=1;jettySize=auto;html=1;exitX=1;exitY=0.5;exitDx=0;exitDy=0;entryX=1;entryY=0.5;entryDx=0;entryDy=0;fontSize=14;" edge="1" parent="1" source="PyYpU2-Xiwqj1ma54kJ--41" target="PyYpU2-Xiwqj1ma54kJ--30">
          <mxGeometry relative="1" as="geometry" />
        </mxCell>
        <mxCell id="PyYpU2-Xiwqj1ma54kJ--45" style="edgeStyle=orthogonalEdgeStyle;rounded=0;orthogonalLoop=1;jettySize=auto;html=1;exitX=0;exitY=0.5;exitDx=0;exitDy=0;entryX=1;entryY=0.5;entryDx=0;entryDy=0;fontSize=14;" edge="1" parent="1" source="PyYpU2-Xiwqj1ma54kJ--41" target="PyYpU2-Xiwqj1ma54kJ--32">
          <mxGeometry relative="1" as="geometry" />
        </mxCell>
        <mxCell id="PyYpU2-Xiwqj1ma54kJ--41" value="Inside IR&amp;nbsp; &amp;nbsp;!= 1" style="rhombus;whiteSpace=wrap;html=1;fontSize=14;" vertex="1" parent="1">
          <mxGeometry x="135" y="1040" width="150" height="80" as="geometry" />
        </mxCell>
        <mxCell id="PyYpU2-Xiwqj1ma54kJ--44" value="No" style="text;html=1;align=center;verticalAlign=middle;resizable=0;points=[];autosize=1;strokeColor=none;fillColor=none;fontSize=14;" vertex="1" parent="1">
          <mxGeometry x="260" y="1045" width="40" height="30" as="geometry" />
        </mxCell>
        <mxCell id="PyYpU2-Xiwqj1ma54kJ--46" value="yes" style="text;html=1;align=center;verticalAlign=middle;resizable=0;points=[];autosize=1;strokeColor=none;fillColor=none;fontSize=14;" vertex="1" parent="1">
          <mxGeometry x="65" y="1035" width="50" height="30" as="geometry" />
        </mxCell>
      </root>
    </mxGraphModel>
  </diagram>
</mxfile>
